<?xml version="1.0" standalone="no"?><!DOCTYPE svg PUBLIC "-//W3C//DTD SVG 1.1//EN" "http://www.w3.org/Graphics/SVG/1.1/DTD/svg11.dtd"><svg t="1778399255433" class="icon" viewBox="0 0 1024 1024" version="1.1" xmlns="http://www.w3.org/2000/svg" p-id="15210" xmlns:xlink="http://www.w3.org/1999/xlink" width="200" height="200"><path d="M891.136 367.104h2.7648l66.4576 38.7072c35.9424 19.4048 47.0528 66.4576 27.648 102.4l-210.3296 387.4816-174.336 74.752-22.1696-188.2112 207.5648-384.7168c19.4048-35.9936 66.4576-49.8176 102.4-30.4128zM838.144 418.6624l-2.3552 3.7888-199.2704 370.8416 11.1104 94.1056 88.576-38.7584 201.984-370.8416c5.5296-8.2944 2.7648-19.4048-8.2944-24.9344l-69.1712-38.7584c-7.2704-4.8128-16.64-3.328-22.5792 4.608zM658.688 93.184c96.8704 0 174.336 80.2816 174.336 179.9168l-0.0512-2.2016-0.256 3.584a27.8016 27.8016 0 0 1-22.528 23.0912l-4.8128 0.4096c-16.64 0-27.648-11.0592-27.648-27.648v2.7648a128 128 0 0 0-36.0448-88.576 126.5152 126.5152 0 0 0-85.76-35.9936H177.1008c-33.1776 0-63.6416 13.824-85.76 35.9936-22.1696 24.8832-35.9936 55.3472-35.9936 88.576v340.3776c0 69.2224 52.5824 124.5696 118.9888 124.5696h318.3104c13.824 0 27.648 11.0592 24.8832 27.648 0 13.824-11.0592 27.648-27.648 27.648H174.336C77.5168 793.344 0 713.1136 0 613.4784V273.0496c0-47.104 19.3536-94.1056 52.5824-127.3344 30.464-33.2288 77.5168-52.5824 121.7536-52.5824zM573.5936 486.4a25.6 25.6 0 1 1 0 51.2h-358.4a25.6 25.6 0 1 1 0-51.2h358.4z m0-172.5952a25.6 25.6 0 1 1 0 51.2h-358.4a25.6 25.6 0 0 1 0-51.2h358.4z" fill="#8a8a8a" p-id="15211"></path></svg>